<svg width="356px" height="474px" viewBox="0 0 356 474" version="1.1" xmlns="http://www.w3.org/2000/svg" xmlns:xlink="http://www.w3.org/1999/xlink">
    <defs>
        <linearGradient x1="50%" y1="100%" x2="50%" y2="3.061617e-15%" id="linearGradient-1">
            <stop stop-color="#FFAB00" stop-opacity="0" offset="0%"></stop>
            <stop stop-color="#F60000" offset="100%"></stop>
        </linearGradient>
    </defs>
    <g id="1" stroke="none" stroke-width="1" fill="none" fill-rule="evenodd">
        <g id="1-copy-29" transform="translate(-363.000000, -207.000000)" fill="url(#linearGradient-1)">
            <g id="symbol-grad" transform="translate(363.000000, 207.000000)">
                <path d="M188.139706,298.666077 L188.139706,298.721014 C188.139706,327.157882 164.70586,350.224638 135.739314,350.224638 L125.426471,350.224638 L125.426471,329.623188 L135.850804,329.623188 C153.215402,329.623188 167.235294,315.779014 167.235294,298.721014 C167.235294,281.525671 153.187529,267.818841 135.850804,267.818841 L52.288902,267.818841 C34.9243039,267.818841 20.9044118,281.663014 20.9044118,288.42029 L2.27373675e-13,288.42029 L2.27373675e-13,51.586029 C2.27373675e-13,23.0942246 23.1899608,0 52.2610294,0 C81.1160858,0 104.522059,23.066756 104.522059,51.586029 L104.522059,113.225565 C113.23223,106.818514 124.067684,103.007246 135.878676,103.007246 C152.943645,103.007246 168.078439,111.137952 177.631755,123.581227 C187.129326,111.083014 202.291993,103.007246 219.496324,103.007246 C231.258539,103.007246 242.114897,106.866585 250.852941,113.362908 L250.852941,72.1050725 C250.852941,43.6682053 274.042902,20.6014493 303.113971,20.6014493 C331.969027,20.6014493 355.375,43.7780797 355.375,72.1050725 L355.375,288.42029 L334.470588,288.42029 L334.470588,267.818841 L334.470588,288.42029 L334.470588,72.0776039 C334.470588,55.1226111 320.422824,41.2028986 303.113971,41.2028986 C285.665755,41.2028986 271.757353,55.0196039 271.757353,72.0776039 L271.757353,257.573053 C271.757353,285.982452 248.567392,309.021739 219.496324,309.021739 C207.734108,309.021739 196.87775,305.162401 188.139706,298.666077 L188.139706,298.666077 Z M167.235294,257.490647 C158.469377,251.028659 147.557275,247.217391 135.739314,247.217391 L52.4003922,247.217391 C40.5824314,247.217391 29.6703284,251.056128 20.9044118,256.845135 L20.9044118,50.9130483 C20.9044118,33.8275797 34.8128137,19.9834058 52.2610294,19.9834058 C69.5698824,19.9834058 83.6176471,33.6352995 83.6176471,50.9130483 L83.6176471,247.217391 L104.522059,247.217391 L104.522059,154.620744 C104.522059,137.480338 118.430461,123.608696 135.878676,123.608696 C153.187529,123.608696 167.235294,137.370464 167.235294,154.620744 L167.235294,257.490647 Z M219.496324,123.608696 C236.805176,123.608696 250.852941,137.370464 250.852941,154.620744 L250.852941,257.408242 C250.852941,274.548647 236.944539,288.42029 219.496324,288.42029 C202.187471,288.42029 188.139706,274.658522 188.139706,257.408242 L188.139706,154.620744 C188.139706,137.480338 202.048108,123.608696 219.496324,123.608696 L219.496324,123.608696 Z M355.375,288.42029 L2.27373675e-13,288.42029 L2.27373675e-13,298.830889 C2.27373675e-13,395.479155 79.5621912,473.833333 177.6875,473.833333 C275.812809,473.833333 355.375,395.479155 355.375,298.830889 L355.375,288.42029 Z M334.470588,288.42029 L20.9044118,288.42029 L20.9044118,297.677208 C20.9044118,383.592118 91.1014265,453.231884 177.6875,453.231884 C264.273574,453.231884 334.470588,383.592118 334.470588,297.677208 L334.470588,288.42029 Z" id="Page-1"></path>
            </g>
        </g>
    </g>
</svg>
